<svg width="30" height="30" viewBox="0 0 30 30" fill="none" xmlns="http://www.w3.org/2000/svg">
<path d="M8.67481 6.25027C8.67447 6.91331 8.41076 7.54907 7.94169 8.01767C7.47261 8.48628 6.8366 8.74936 6.17356 8.74902C5.51051 8.74869 4.87476 8.48498 4.40615 8.01591C3.93755 7.54683 3.67447 6.91082 3.67481 6.24777C3.67514 5.58473 3.93885 4.94898 4.40792 4.48037C4.877 4.01177 5.51301 3.74869 6.17605 3.74902C6.8391 3.74936 7.47485 4.01307 7.94346 4.48214C8.41206 4.95122 8.67514 5.58723 8.67481 6.25027ZM8.74981 10.6003H3.7498V26.2503H8.74981V10.6003ZM16.6498 10.6003H11.6748V26.2503H16.5998V18.0378C16.5998 13.4628 22.5623 13.0378 22.5623 18.0378V26.2503H27.4998V16.3378C27.4998 8.62527 18.6748 8.91277 16.5998 12.7003L16.6498 10.6003Z" fill="#D64D00"/>
</svg>
