<svg width="40" height="40" viewBox="0 0 40 40" fill="none" xmlns="http://www.w3.org/2000/svg">
<path d="M29.3134 25.7962H27.4611L26.8045 25.1631C28.2699 23.4607 29.3409 21.4555 29.9408 19.2908C30.5407 17.1262 30.6548 14.8557 30.2748 12.6419C29.1728 6.12332 23.7328 0.91785 17.1674 0.120616C14.8592 -0.171393 12.5148 0.0684948 10.3135 0.821921C8.11233 1.57535 6.11264 2.82234 4.46749 4.46749C2.82234 6.11264 1.57535 8.11233 0.821921 10.3135C0.0684948 12.5148 -0.171393 14.8592 0.120616 17.1674C0.91785 23.7328 6.12332 29.1728 12.6419 30.2748C14.8557 30.6548 17.1262 30.5407 19.2908 29.9408C21.4555 29.3409 23.4607 28.2699 25.1631 26.8045L25.7962 27.4611V29.3134L35.7617 39.2789C36.723 40.2402 38.294 40.2402 39.2554 39.2789C40.2168 38.3175 40.2168 36.7465 39.2554 35.7851L29.3134 25.7962ZM15.2446 25.7962C9.40605 25.7962 4.69299 21.0832 4.69299 15.2446C4.69299 9.40605 9.40605 4.69299 15.2446 4.69299C21.0832 4.69299 25.7962 9.40605 25.7962 15.2446C25.7962 21.0832 21.0832 25.7962 15.2446 25.7962Z" fill="#D64D00"/>
</svg>
