<svg width="25" height="24" viewBox="0 0 25 24" fill="none" xmlns="http://www.w3.org/2000/svg">
<path d="M21.8075 10H3.11523M21.8075 12.5V8.8C21.8075 7.11984 21.8075 6.27976 21.468 5.63803C21.1693 5.07354 20.6927 4.6146 20.1065 4.32698C19.4401 4 18.5677 4 16.8229 4H8.09985C6.35507 4 5.48268 4 4.81626 4.32698C4.23007 4.6146 3.75347 5.07354 3.45479 5.63803C3.11523 6.27976 3.11523 7.11984 3.11523 8.8V17.2C3.11523 18.8802 3.11523 19.7202 3.45479 20.362C3.75347 20.9265 4.23007 21.3854 4.81626 21.673C5.48268 22 6.35507 22 8.09985 22H12.4614M16.6152 2V6M8.30754 2V6M15.0575 19L17.1345 21L21.8075 16.5" stroke="#121212" stroke-width="2" stroke-linecap="round" stroke-linejoin="round"/>
</svg>
