<svg width="50" height="50" viewBox="0 0 50 50" fill="none" xmlns="http://www.w3.org/2000/svg">
<path d="M31.249 12.5H18.749C15.2972 12.5 12.499 15.2982 12.499 18.75V31.25C12.499 34.7018 15.2972 37.5 18.749 37.5H31.249C34.7008 37.5 37.499 34.7018 37.499 31.25V18.75C37.499 15.2982 34.7008 12.5 31.249 12.5Z" stroke="#D64D00" stroke-width="2.5" stroke-linecap="round" stroke-linejoin="round"/>
<path d="M31.8737 18.125H31.8862M29.9987 24.2125C30.1529 25.2528 29.9752 26.3153 29.4909 27.2488C29.0065 28.1823 28.2401 28.9393 27.3007 29.4121C26.3613 29.8849 25.2967 30.0495 24.2584 29.8824C23.2201 29.7153 22.2609 29.2251 21.5172 28.4815C20.7736 27.7378 20.2833 26.7786 20.1162 25.7403C19.9492 24.7019 20.1137 23.6374 20.5866 22.698C21.0594 21.7586 21.8164 20.9922 22.7499 20.5078C23.6834 20.0234 24.7459 19.8457 25.7862 20C26.8473 20.1574 27.8297 20.6518 28.5883 21.4104C29.3468 22.1689 29.8413 23.1513 29.9987 24.2125Z" stroke="#D64D00" stroke-width="2.5" stroke-linecap="round" stroke-linejoin="round"/>
</svg>
