<svg width="25" height="24" viewBox="0 0 25 24" fill="none" xmlns="http://www.w3.org/2000/svg">
<path d="M15.5771 9H15.5875M9.34638 9H9.35676M22.8464 12C22.8464 17.5228 18.197 22 12.4618 22C6.7265 22 2.07715 17.5228 2.07715 12C2.07715 6.47715 6.7265 2 12.4618 2C18.197 2 22.8464 6.47715 22.8464 12ZM16.0964 9C16.0964 9.27614 15.8639 9.5 15.5771 9.5C15.2904 9.5 15.0579 9.27614 15.0579 9C15.0579 8.72386 15.2904 8.5 15.5771 8.5C15.8639 8.5 16.0964 8.72386 16.0964 9ZM9.86561 9C9.86561 9.27614 9.63314 9.5 9.34638 9.5C9.05962 9.5 8.82715 9.27614 8.82715 9C8.82715 8.72386 9.05962 8.5 9.34638 8.5C9.63314 8.5 9.86561 8.72386 9.86561 9ZM12.4618 17.5C15.0584 17.5 17.1348 15.667 17.1348 14H7.78869C7.78869 15.667 9.86509 17.5 12.4618 17.5Z" stroke="#121212" stroke-width="2" stroke-linecap="round" stroke-linejoin="round"/>
</svg>
